<svg id="adobe-xd-seeklogo.com" xmlns="http://www.w3.org/2000/svg" width="49" height="47.775" viewBox="0 0 49 47.775">
  <path id="Path_4" data-name="Path 4" d="M8.677,0H40.323A8.67,8.67,0,0,1,49,8.677V39.1a8.67,8.67,0,0,1-8.677,8.677H8.677A8.67,8.67,0,0,1,0,39.1V8.677A8.67,8.67,0,0,1,8.677,0Z" fill="#470137"/>
  <g id="Group_1" data-name="Group 1" transform="translate(7.138 10.471)">
    <path id="Path_5" data-name="Path 5" d="M53.589,60.306,47.464,70.412,54,81.131a.351.351,0,0,1,.041.245c-.02.082-.1.02-.225.041H49.138c-.327,0-.551-.02-.694-.225-.429-.858-.878-1.695-1.307-2.552-.429-.837-.9-1.695-1.388-2.572s-.98-1.756-1.47-2.654h-.041c-.429.878-.9,1.756-1.368,2.634s-.939,1.756-1.388,2.613c-.47.857-.939,1.735-1.409,2.573-.082.2-.245.225-.47.225H35.112c-.082,0-.143.041-.143-.061a.284.284,0,0,1,.041-.225l6.35-10.412L35.173,60.286c-.061-.082-.082-.163-.041-.2a.237.237,0,0,1,.2-.082h4.635a1.205,1.205,0,0,1,.286.041.579.579,0,0,1,.2.184c.388.878.837,1.756,1.307,2.634.49.878.96,1.735,1.47,2.593.49.857.939,1.715,1.368,2.593h.041c.429-.9.878-1.776,1.327-2.634s.919-1.715,1.388-2.572.919-1.735,1.368-2.572a.347.347,0,0,1,.123-.2.389.389,0,0,1,.265-.041h4.308a.188.188,0,0,1,.225.143c.02.02-.02.1-.061.143Z" transform="translate(-34.961 -58.221)" fill="#ff61f6"/>
    <path id="Path_6" data-name="Path 6" d="M138.892,74.91a10.15,10.15,0,0,1-4.39-.919,7.118,7.118,0,0,1-3.083-2.777,8.834,8.834,0,0,1-1.123-4.655,8.385,8.385,0,0,1,1.123-4.308,8.479,8.479,0,0,1,3.246-3.165,10.444,10.444,0,0,1,5.165-1.184,3.646,3.646,0,0,1,.429.02c.184.02.388.02.633.041V51.512c0-.143.061-.225.2-.225h4.145a.183.183,0,0,1,.2.143V70.908c0,.368.02.776.041,1.225.041.429.061.837.082,1.184a.332.332,0,0,1-.2.327,15.593,15.593,0,0,1-3.328.98A18.009,18.009,0,0,1,138.892,74.91Zm2-4.083V61.843a5.223,5.223,0,0,0-.551-.1c-.225-.02-.449-.041-.674-.041a5.033,5.033,0,0,0-2.307.531,4.577,4.577,0,0,0-1.735,1.511,4.526,4.526,0,0,0-.674,2.593,5.69,5.69,0,0,0,.347,2.1,3.99,3.99,0,0,0,.919,1.45,3.527,3.527,0,0,0,1.388.817,5.344,5.344,0,0,0,1.695.265c.306,0,.592-.02.857-.041a1.786,1.786,0,0,0,.735-.1Z" transform="translate(-110.832 -51.284)" fill="#ff61f6"/>
  </g>
</svg>
